# xmcd
# 
# Track frame offsets:
#     150
#     8021
#     21193
#     36620
#     45178
# 
# Disc length: 828
# 
# Revision: 0
# Processed by: cddbd v1.5.2PL0 Copyright (c) Steve Scherf et al.
# Submitted via: BonkEnc v1.0.8
# 
DISCID=31033a05
DTITLE=The Cabs - 一番はじめの出来事
DYEAR=2011
DGENRE=Rock
TTITLE0=チャールズ・ブロンソンのために
TTITLE1=二月の兵隊
TTITLE2=僕たちに明日はない
TTITLE3=haiku about kdyla
TTITLE4=nicol kills nicolas for nicola
EXTD=
EXTT0=
EXTT1=
EXTT2=
EXTT3=
EXTT4=
PLAYORDER=
